<?xml version="1.0" encoding="utf-8"?>
<!-- Generator: Adobe Illustrator 22.1.0, SVG Export Plug-In . SVG Version: 6.00 Build 0)  -->
<svg version="1.1" id="Layer_1" xmlns="http://www.w3.org/2000/svg" xmlns:xlink="http://www.w3.org/1999/xlink" x="0px" y="0px"
	 viewBox="0 0 150 150" style="enable-background:new 0 0 150 150;" xml:space="preserve">
<style type="text/css">
	.st0{fill:#FFFFFF;}
	.st1{fill:#939598;stroke:#939598;stroke-width:0.6073;stroke-miterlimit:10;}
</style>
<g>
	<path d="M29.7,82v2.9c0,5.1,2.4,6.9,6.3,6.9c5.3,0,6.8-3.2,6.8-7.3V53.4h5.7v30.8c0,9.9-6.5,12.5-12.2,12.5c-9.8,0-12-6.6-12-10.5
		V82H29.7z"/>
	<path d="M63.1,83.3l-4.4,12.3h-5.9l15.9-42.2h6.5l15.3,42.2h-6.2L80,83.3H63.1z M78,78.2l-6.2-18.6h-0.1l-6.8,18.6H78z"/>
	<polygon class="st1" points="125.7,74.1 108.4,74.1 108.4,56.9 107.8,56.9 107.8,74.1 90.5,74.1 90.5,74.7 107.8,74.7 107.8,92 
		108.4,92 108.4,74.7 125.7,74.7 	"/>
</g>
</svg>
