<?xml version="1.0" encoding="utf-8"?>
<!-- Generator: Adobe Illustrator 22.1.0, SVG Export Plug-In . SVG Version: 6.00 Build 0)  -->
<svg version="1.1" id="Layer_1" xmlns="http://www.w3.org/2000/svg" xmlns:xlink="http://www.w3.org/1999/xlink" x="0px" y="0px"
	 viewBox="0 0 719.9 61.5" style="enable-background:new 0 0 719.9 61.5;" xml:space="preserve">
<style type="text/css">
	.st0{fill:#939598;}
	.st1{fill:#939598;stroke:#939598;stroke-miterlimit:10;}
</style>
<g>
	<path d="M5.6,34.7v3.1c0,5.3,2.5,7.2,6.6,7.2c5.5,0,7-3.3,7-7.6V4.8h5.9V37c0,10.3-6.7,13.1-12.7,13.1C2.3,50,0,43.1,0,39v-4.4H5.6
		z"/>
	<path d="M42.8,15.9c10.2,0,14.9,8.6,14.9,16.9S53,49.7,42.8,49.7c-10.2,0-14.9-8.6-14.9-16.9S32.6,15.9,42.8,15.9z M42.8,45
		c7.7,0,9.3-8,9.3-12.3s-1.6-12.3-9.3-12.3s-9.3,8-9.3,12.3S35.1,45,42.8,45z"/>
	<path d="M81.2,25.9c-0.1-2-0.8-5.4-7.6-5.4c-1.7,0-6.4,0.6-6.4,4.5c0,2.6,1.7,3.2,5.8,4.3l5.4,1.3c6.7,1.7,9,4.1,9,8.5
		c0,6.6-5.5,10.6-12.7,10.6c-12.7,0-13.6-7.4-13.8-11.2h5.2c0.2,2.5,0.9,6.6,8.5,6.6c3.9,0,7.4-1.5,7.4-5.1c0-2.6-1.8-3.4-6.4-4.6
		l-6.3-1.5C65,32.8,62,30.5,62,26.1c0-7,5.8-10.2,12.1-10.2c11.5,0,12.3,8.5,12.3,10.1H81.2z"/>
	<path d="M117.1,48.8h-5.4v-21c0-4.4-1.2-7.2-6.4-7.2c-4.4,0-8.9,2.6-8.9,10.7v17.5H91v-44h5.4v16.2h0.1c1.5-2,4.2-5.2,9.4-5.2
		c5,0,11.2,2,11.2,11.2V48.8z"/>
	<path d="M142.1,48.8v-4.7l-0.1-0.1c-2.3,3.7-5,5.7-10.2,5.7c-4.7,0-10.4-2.3-10.4-9.9v-23h5.4v21.3c0,5.3,2.7,7,6.2,7
		c6.8,0,8.8-6,8.8-10.7V16.8h5.4v32.1H142.1z"/>
	<path d="M153.1,26.5c0.2-7.7,5.3-10.7,13.2-10.7c2.6,0,11.9,0.7,11.9,8.9v18.4c0,1.3,0.7,1.9,1.8,1.9c0.5,0,1.2-0.1,1.8-0.2v3.9
		c-0.9,0.2-1.7,0.6-2.9,0.6c-4.8,0-5.5-2.5-5.7-4.9c-2.1,2.3-5.3,5.2-11.6,5.2c-5.9,0-10.1-3.7-10.1-9.3c0-2.7,0.8-8.9,9.7-10.1
		l8.9-1.1c1.3-0.1,2.8-0.6,2.8-3.8c0-3.4-2.5-5.2-7.5-5.2c-6.1,0-7,3.7-7.4,6.2H153.1z M172.9,32.5c-0.9,0.7-2.2,1.2-8.9,2
		c-2.6,0.4-6.9,1.2-6.9,5.2c0,3.5,1.8,5.6,5.8,5.6c5,0,9.9-3.2,9.9-7.5V32.5z"/>
	<path d="M211.4,36l-4.6,12.8h-6.1l16.5-44h6.7l15.9,44h-6.5L229.1,36H211.4z M227,30.8l-6.5-19.4h-0.1l-7,19.4H227z"/>
	<path d="M268.4,48.8h-5.1v-4.4h-0.1c-2.3,4.4-6,5.3-9.1,5.3c-10.9,0-14.1-10.2-14.1-17.9c0-9,4.8-16,13.4-16c5.8,0,8.3,3.6,9.6,5.5
		l0.1-0.4V4.8h5.4V48.8z M254.2,45.1c3.4,0,8.8-2.3,8.8-10.8c0-5.2-0.9-13.6-8.6-13.6c-8.3,0-8.8,7.9-8.8,12
		C245.5,39.8,248.3,45.1,254.2,45.1z"/>
	<path d="M272.1,11V4.8h5.4V11H272.1z M277.5,48.8h-5.4V16.8h5.4V48.8z"/>
	<path d="M289,21.3v20.8c0,2.5,2.1,2.5,3.2,2.5h1.9v4.2c-2,0.2-3.5,0.4-4,0.4c-5.3,0-6.5-3-6.5-6.9V21.3h-4.4v-4.5h4.4V7.8h5.4v8.9
		h5.1v4.5H289z"/>
	<path d="M298.3,26.5c0.2-7.7,5.3-10.7,13.2-10.7c2.6,0,11.9,0.7,11.9,8.9v18.4c0,1.3,0.7,1.9,1.8,1.9c0.5,0,1.2-0.1,1.8-0.2v3.9
		c-0.9,0.2-1.7,0.6-2.9,0.6c-4.8,0-5.5-2.5-5.7-4.9c-2.1,2.3-5.3,5.2-11.6,5.2c-5.9,0-10.1-3.7-10.1-9.3c0-2.7,0.8-8.9,9.7-10.1
		l8.9-1.1c1.3-0.1,2.8-0.6,2.8-3.8c0-3.4-2.5-5.2-7.5-5.2c-6.1,0-7,3.7-7.4,6.2H298.3z M318,32.5c-0.9,0.7-2.2,1.2-8.9,2
		c-2.6,0.4-6.9,1.2-6.9,5.2c0,3.5,1.8,5.6,5.8,5.6c5,0,9.9-3.2,9.9-7.5V32.5z"/>
	<path d="M329.7,16.8h5.1v4.5h0.1c1.2-1.7,3.9-5.5,9.7-5.5s7.6,3.5,8.5,5.2c2.7-3,4.8-5.2,9.8-5.2c3.4,0,9.9,1.8,9.9,10.8v22.2h-5.4
		V28.1c0-4.4-1.3-7.4-5.9-7.4c-4.5,0-7.5,4.3-7.5,8.6v19.6h-5.4V26.7c0-2.7-1-5.9-5-5.9c-3.1,0-8.5,2-8.5,10.7v17.5h-5.4V16.8z"/>
	<path d="M377.6,26.5c0.2-7.7,5.3-10.7,13.2-10.7c2.6,0,11.9,0.7,11.9,8.9v18.4c0,1.3,0.7,1.9,1.8,1.9c0.5,0,1.2-0.1,1.8-0.2v3.9
		c-0.9,0.2-1.7,0.6-2.9,0.6c-4.8,0-5.5-2.5-5.7-4.9c-2.1,2.3-5.3,5.2-11.6,5.2c-5.9,0-10.1-3.7-10.1-9.3c0-2.7,0.8-8.9,9.7-10.1
		l8.9-1.1c1.3-0.1,2.8-0.6,2.8-3.8c0-3.4-2.5-5.2-7.5-5.2c-6.1,0-7,3.7-7.4,6.2H377.6z M397.3,32.5c-0.9,0.7-2.2,1.2-8.9,2
		c-2.6,0.4-6.9,1.2-6.9,5.2c0,3.5,1.8,5.6,5.8,5.6c5,0,9.9-3.2,9.9-7.5V32.5z"/>
	<path class="st0" d="M514.8,16.8h5.1v4.5h0.1c1.3-1.8,3.7-5.5,9.6-5.5c8.5,0,13.4,7,13.4,16c0,7.7-3.2,17.9-14.1,17.9
		c-4.3,0-7.1-2-8.5-4.3h-0.1v16.1h-5.4V16.8z M528.8,45.1c5.9,0,8.6-5.3,8.6-12.4c0-4.1-0.4-12-8.8-12c-7.8,0-8.6,8.4-8.6,13.6
		C520,42.8,525.3,45.1,528.8,45.1z"/>
	<path class="st0" d="M546.5,26.5c0.2-7.7,5.3-10.7,13.2-10.7c2.6,0,11.9,0.7,11.9,8.9v18.4c0,1.3,0.7,1.9,1.8,1.9
		c0.5,0,1.2-0.1,1.8-0.2v3.9c-0.9,0.2-1.7,0.6-2.9,0.6c-4.8,0-5.5-2.5-5.7-4.9c-2.1,2.3-5.3,5.2-11.6,5.2c-5.9,0-10.1-3.7-10.1-9.3
		c0-2.7,0.8-8.9,9.7-10.1l8.9-1.1c1.3-0.1,2.8-0.6,2.8-3.8c0-3.4-2.5-5.2-7.5-5.2c-6.1,0-7,3.7-7.4,6.2H546.5z M566.2,32.5
		c-0.9,0.7-2.2,1.2-8.9,2c-2.6,0.4-6.9,1.2-6.9,5.2c0,3.5,1.8,5.6,5.8,5.6c5,0,9.9-3.2,9.9-7.5V32.5z"/>
	<path class="st0" d="M583.4,48.8H578V16.8h5.1v5.3h0.1c2.1-3.7,5-6.3,9-6.3c0.7,0,1,0.1,1.4,0.2v5.6h-2c-5,0-8.2,3.9-8.2,8.6V48.8z
		"/>
	<path class="st0" d="M607.2,21.3v20.8c0,2.5,2.1,2.5,3.2,2.5h1.9v4.2c-2,0.2-3.5,0.4-4,0.4c-5.3,0-6.5-3-6.5-6.9V21.3h-4.4v-4.5
		h4.4V7.8h5.4v8.9h5.1v4.5H607.2z"/>
	<path class="st0" d="M641.4,48.8H636V29.1c0-5.6-1.6-8.4-6.9-8.4c-3.1,0-8.5,2-8.5,10.7v17.5h-5.4V16.8h5.1v4.5h0.1
		c1.2-1.7,4.2-5.5,9.7-5.5c5,0,11.2,2,11.2,11.2V48.8z"/>
	<path class="st0" d="M672.6,38.8c-0.2,1.5-1.7,6.1-5.7,8.8c-1.5,1-3.6,2.2-8.7,2.2c-9,0-14.3-6.8-14.3-16.1
		c0-9.9,4.8-17.8,15.4-17.8c9.3,0,13.8,7.4,13.8,18.7h-23.4c0,6.7,3.1,10.5,9.3,10.5c5.1,0,8.1-3.9,8.3-6.3H672.6z M667.5,30.3
		c-0.3-5-2.4-9.6-8.9-9.6c-5,0-8.9,4.6-8.9,9.6H667.5z"/>
	<path class="st0" d="M682.2,48.8h-5.4V16.8h5.1v5.3h0.1c2.1-3.7,5-6.3,9-6.3c0.7,0,1,0.1,1.4,0.2v5.6h-2c-5,0-8.2,3.9-8.2,8.6V48.8
		z"/>
	<path class="st0" d="M713.6,25.9c-0.1-2-0.8-5.4-7.6-5.4c-1.7,0-6.4,0.6-6.4,4.5c0,2.6,1.7,3.2,5.8,4.3l5.4,1.3
		c6.7,1.7,9,4.1,9,8.5c0,6.6-5.5,10.6-12.7,10.6c-12.7,0-13.6-7.4-13.8-11.2h5.2c0.2,2.5,0.9,6.6,8.5,6.6c3.9,0,7.4-1.5,7.4-5.1
		c0-2.6-1.8-3.4-6.4-4.6l-6.3-1.5c-4.5-1.1-7.4-3.4-7.4-7.8c0-7,5.8-10.2,12.1-10.2c11.5,0,12.3,8.5,12.3,10.1H713.6z"/>
	<polygon class="st1" points="488.3,28.9 459.9,28.9 459.9,0.5 458.9,0.5 458.9,28.9 430.5,28.9 430.5,29.9 458.9,29.9 458.9,58.3 
		459.9,58.3 459.9,29.9 488.3,29.9 	"/>
</g>
</svg>
